<svg xmlns="http://www.w3.org/2000/svg" xmlns:xlink="http://www.w3.org/1999/xlink" width="70" zoomAndPan="magnify" viewBox="0 0 52.5 30.000001" height="40" preserveAspectRatio="xMidYMid meet" version="1.0"><defs><g/><clipPath id="7d7b1f47c0"><path d="M 0.605469 0 L 51.410156 0 L 51.410156 29.03125 L 0.605469 29.03125 Z M 0.605469 0 " clip-rule="nonzero"/></clipPath><clipPath id="9b27851e73"><path d="M 16 23 L 18 23 L 18 23.957031 L 16 23.957031 Z M 16 23 " clip-rule="nonzero"/></clipPath><clipPath id="1c1bf7ae62"><path d="M 5 23 L 7 23 L 7 23.957031 L 5 23.957031 Z M 5 23 " clip-rule="nonzero"/></clipPath><clipPath id="8c27ddd39f"><path d="M 3.507812 8 L 6 8 L 6 12 L 3.507812 12 Z M 3.507812 8 " clip-rule="nonzero"/></clipPath><clipPath id="246e1ae25c"><path d="M 3.507812 18 L 6 18 L 6 22 L 3.507812 22 Z M 3.507812 18 " clip-rule="nonzero"/></clipPath><clipPath id="626592e02e"><path d="M 4 7.265625 L 18.75 7.265625 L 18.75 23 L 4 23 Z M 4 7.265625 " clip-rule="nonzero"/></clipPath></defs><g clip-path="url(#7d7b1f47c0)"><path fill="#ffffff" d="M 0.605469 0 L 51.410156 0 L 51.410156 29.03125 L 0.605469 29.03125 Z M 0.605469 0 " fill-opacity="1" fill-rule="nonzero"/><path fill="#86d5a7" d="M 0.605469 0 L 51.410156 0 L 51.410156 29.03125 L 0.605469 29.03125 Z M 0.605469 0 " fill-opacity="1" fill-rule="nonzero"/></g><g clip-path="url(#9b27851e73)"><path fill="#05386b" d="M 16.183594 23.246094 L 17.285156 23.246094 L 17.285156 23.796875 L 16.183594 23.796875 Z M 16.183594 23.246094 " fill-opacity="1" fill-rule="nonzero"/></g><g clip-path="url(#1c1bf7ae62)"><path fill="#05386b" d="M 5.710938 23.246094 L 6.816406 23.246094 L 6.816406 23.796875 L 5.710938 23.796875 Z M 5.710938 23.246094 " fill-opacity="1" fill-rule="nonzero"/></g><g clip-path="url(#8c27ddd39f)"><path fill="#05386b" d="M 3.507812 8.917969 L 5.160156 8.917969 L 5.160156 11.121094 L 3.507812 11.121094 Z M 3.507812 8.917969 " fill-opacity="1" fill-rule="nonzero"/></g><g clip-path="url(#246e1ae25c)"><path fill="#05386b" d="M 3.507812 18.835938 L 5.160156 18.835938 L 5.160156 21.042969 L 3.507812 21.042969 Z M 3.507812 18.835938 " fill-opacity="1" fill-rule="nonzero"/></g><g clip-path="url(#626592e02e)"><path fill="#05386b" d="M 4.609375 7.265625 L 4.609375 8.367188 L 5.4375 8.367188 C 5.589844 8.367188 5.710938 8.492188 5.710938 8.644531 L 5.710938 11.398438 C 5.710938 11.550781 5.589844 11.671875 5.4375 11.671875 L 4.609375 11.671875 L 4.609375 18.285156 L 5.4375 18.285156 C 5.589844 18.285156 5.710938 18.410156 5.710938 18.5625 L 5.710938 21.316406 C 5.710938 21.46875 5.589844 21.59375 5.4375 21.59375 L 4.609375 21.59375 L 4.609375 22.695312 L 18.386719 22.695312 L 18.386719 7.265625 Z M 15.839844 17.851562 C 15.839844 17.859375 15.835938 17.867188 15.832031 17.875 C 15.828125 17.878906 15.824219 17.886719 15.816406 17.894531 C 15.410156 18.585938 14.832031 19.167969 14.136719 19.574219 C 14.128906 19.578125 14.125 19.582031 14.117188 19.585938 C 14.109375 19.589844 14.101562 19.59375 14.097656 19.597656 C 13.410156 19.992188 12.617188 20.214844 11.773438 20.214844 C 10.929688 20.214844 10.136719 19.992188 9.453125 19.597656 C 9.445312 19.59375 9.4375 19.589844 9.433594 19.585938 C 9.425781 19.582031 9.417969 19.578125 9.414062 19.574219 C 8.71875 19.167969 8.136719 18.585938 7.730469 17.894531 C 7.726562 17.886719 7.722656 17.878906 7.71875 17.875 C 7.714844 17.867188 7.710938 17.859375 7.707031 17.851562 C 7.316406 17.167969 7.089844 16.375 7.089844 15.53125 C 7.089844 14.6875 7.316406 13.894531 7.707031 13.207031 C 7.710938 13.203125 7.714844 13.195312 7.71875 13.1875 C 7.722656 13.183594 7.726562 13.175781 7.730469 13.167969 C 8.136719 12.476562 8.71875 11.894531 9.414062 11.488281 C 9.417969 11.484375 9.425781 11.480469 9.433594 11.472656 C 9.4375 11.46875 9.445312 11.46875 9.453125 11.464844 C 10.136719 11.070312 10.929688 10.847656 11.773438 10.847656 C 12.617188 10.847656 13.410156 11.070312 14.097656 11.464844 C 14.101562 11.46875 14.109375 11.46875 14.117188 11.472656 C 14.125 11.480469 14.128906 11.484375 14.136719 11.488281 C 14.832031 11.894531 15.410156 12.476562 15.816406 13.167969 C 15.824219 13.175781 15.828125 13.183594 15.832031 13.1875 C 15.835938 13.195312 15.839844 13.203125 15.839844 13.207031 C 16.234375 13.894531 16.457031 14.6875 16.457031 15.53125 C 16.457031 16.375 16.234375 17.167969 15.839844 17.851562 Z M 15.839844 17.851562 " fill-opacity="1" fill-rule="nonzero"/></g><path fill="#05386b" d="M 14.804688 15.253906 L 15.898438 15.253906 C 15.863281 14.703125 15.714844 14.179688 15.484375 13.707031 L 14.535156 14.253906 C 14.492188 14.28125 14.445312 14.292969 14.398438 14.292969 C 14.304688 14.292969 14.210938 14.242188 14.160156 14.152344 C 14.085938 14.019531 14.128906 13.851562 14.261719 13.777344 L 15.207031 13.230469 C 14.90625 12.785156 14.519531 12.398438 14.074219 12.097656 L 13.527344 13.042969 C 13.476562 13.132812 13.382812 13.183594 13.289062 13.183594 C 13.242188 13.183594 13.195312 13.171875 13.152344 13.144531 C 13.019531 13.070312 12.976562 12.898438 13.050781 12.769531 L 13.597656 11.824219 C 13.125 11.589844 12.601562 11.445312 12.050781 11.40625 L 12.050781 12.5 C 12.050781 12.652344 11.925781 12.777344 11.773438 12.777344 C 11.621094 12.777344 11.5 12.652344 11.5 12.5 L 11.5 11.40625 C 10.945312 11.445312 10.421875 11.589844 9.949219 11.824219 L 10.496094 12.769531 C 10.574219 12.898438 10.527344 13.070312 10.398438 13.144531 C 10.351562 13.167969 10.304688 13.183594 10.257812 13.183594 C 10.164062 13.183594 10.070312 13.132812 10.019531 13.042969 L 9.472656 12.097656 C 9.027344 12.398438 8.640625 12.785156 8.34375 13.230469 L 9.289062 13.777344 C 9.417969 13.851562 9.464844 14.019531 9.386719 14.152344 C 9.335938 14.242188 9.246094 14.292969 9.148438 14.292969 C 9.101562 14.292969 9.054688 14.28125 9.011719 14.253906 L 8.066406 13.707031 C 7.832031 14.179688 7.6875 14.703125 7.652344 15.253906 L 8.742188 15.253906 C 8.894531 15.253906 9.019531 15.378906 9.019531 15.53125 C 9.019531 15.683594 8.894531 15.804688 8.742188 15.804688 L 7.652344 15.804688 C 7.6875 16.359375 7.832031 16.882812 8.066406 17.355469 L 9.011719 16.808594 C 9.144531 16.730469 9.3125 16.777344 9.386719 16.910156 C 9.464844 17.039062 9.417969 17.210938 9.289062 17.285156 L 8.34375 17.832031 C 8.640625 18.277344 9.027344 18.664062 9.472656 18.964844 L 10.019531 18.019531 C 10.097656 17.886719 10.265625 17.839844 10.398438 17.917969 C 10.527344 17.992188 10.574219 18.160156 10.496094 18.292969 L 9.949219 19.238281 C 10.421875 19.472656 10.945312 19.617188 11.5 19.65625 L 11.5 18.5625 C 11.5 18.410156 11.621094 18.285156 11.773438 18.285156 C 11.925781 18.285156 12.050781 18.410156 12.050781 18.5625 L 12.050781 19.65625 C 12.601562 19.617188 13.125 19.472656 13.597656 19.238281 L 13.050781 18.292969 C 12.976562 18.160156 13.019531 17.992188 13.152344 17.917969 C 13.285156 17.839844 13.453125 17.886719 13.527344 18.019531 L 14.074219 18.964844 C 14.519531 18.664062 14.90625 18.277344 15.207031 17.832031 L 14.261719 17.285156 C 14.128906 17.210938 14.085938 17.039062 14.160156 16.910156 C 14.238281 16.777344 14.40625 16.730469 14.535156 16.808594 L 15.484375 17.355469 C 15.714844 16.882812 15.863281 16.359375 15.898438 15.804688 L 14.804688 15.804688 C 14.652344 15.804688 14.53125 15.683594 14.53125 15.53125 C 14.53125 15.378906 14.652344 15.253906 14.804688 15.253906 Z M 11.773438 17.734375 C 10.558594 17.734375 9.570312 16.746094 9.570312 15.53125 C 9.570312 14.316406 10.558594 13.328125 11.773438 13.328125 C 12.988281 13.328125 13.976562 14.316406 13.976562 15.53125 C 13.976562 16.746094 12.988281 17.734375 11.773438 17.734375 Z M 11.773438 17.734375 " fill-opacity="1" fill-rule="nonzero"/><path fill="#05386b" d="M 13.425781 15.53125 C 13.425781 15.75 13.386719 15.960938 13.300781 16.164062 C 13.21875 16.367188 13.097656 16.546875 12.941406 16.699219 C 12.789062 16.855469 12.609375 16.972656 12.40625 17.058594 C 12.203125 17.140625 11.992188 17.183594 11.773438 17.183594 C 11.554688 17.183594 11.34375 17.140625 11.140625 17.058594 C 10.9375 16.972656 10.761719 16.855469 10.605469 16.699219 C 10.449219 16.546875 10.332031 16.367188 10.246094 16.164062 C 10.164062 15.960938 10.121094 15.75 10.121094 15.53125 C 10.121094 15.3125 10.164062 15.101562 10.246094 14.898438 C 10.332031 14.695312 10.449219 14.515625 10.605469 14.363281 C 10.761719 14.207031 10.9375 14.085938 11.140625 14.003906 C 11.34375 13.917969 11.554688 13.878906 11.773438 13.878906 C 11.992188 13.878906 12.203125 13.917969 12.40625 14.003906 C 12.609375 14.085938 12.789062 14.207031 12.941406 14.363281 C 13.097656 14.515625 13.21875 14.695312 13.300781 14.898438 C 13.386719 15.101562 13.425781 15.3125 13.425781 15.53125 Z M 13.425781 15.53125 " fill-opacity="1" fill-rule="nonzero"/><g fill="#05386b" fill-opacity="1"><g transform="translate(20.577733, 14.393705)"><g><path d="M 2.0625 0 L 1.234375 0 L 0.0625 -3.484375 L 0.796875 -3.484375 L 1.640625 -0.890625 L 1.703125 -0.890625 L 2.53125 -3.484375 L 3.234375 -3.484375 Z M 2.0625 0 "/></g></g><g transform="translate(23.884753, 14.393705)"><g><path d="M 1.03125 0.046875 C 0.851562 0.046875 0.703125 0.015625 0.578125 -0.046875 C 0.460938 -0.109375 0.367188 -0.195312 0.296875 -0.3125 C 0.234375 -0.4375 0.203125 -0.582031 0.203125 -0.75 C 0.203125 -0.90625 0.234375 -1.035156 0.296875 -1.140625 C 0.367188 -1.242188 0.472656 -1.328125 0.609375 -1.390625 C 0.742188 -1.460938 0.925781 -1.515625 1.15625 -1.546875 C 1.3125 -1.578125 1.429688 -1.609375 1.515625 -1.640625 C 1.597656 -1.671875 1.648438 -1.703125 1.671875 -1.734375 C 1.703125 -1.773438 1.71875 -1.828125 1.71875 -1.890625 C 1.71875 -1.972656 1.6875 -2.035156 1.625 -2.078125 C 1.570312 -2.117188 1.476562 -2.140625 1.34375 -2.140625 C 1.195312 -2.140625 1.054688 -2.109375 0.921875 -2.046875 C 0.796875 -1.984375 0.679688 -1.898438 0.578125 -1.796875 L 0.53125 -1.796875 L 0.265625 -2.203125 C 0.390625 -2.347656 0.546875 -2.460938 0.734375 -2.546875 C 0.929688 -2.628906 1.144531 -2.671875 1.375 -2.671875 C 1.71875 -2.671875 1.96875 -2.597656 2.125 -2.453125 C 2.28125 -2.304688 2.359375 -2.097656 2.359375 -1.828125 L 2.359375 -0.6875 C 2.359375 -0.570312 2.410156 -0.515625 2.515625 -0.515625 C 2.554688 -0.515625 2.597656 -0.519531 2.640625 -0.53125 L 2.671875 -0.515625 L 2.71875 -0.0625 C 2.675781 -0.0390625 2.625 -0.0195312 2.5625 0 C 2.5 0.0078125 2.425781 0.015625 2.34375 0.015625 C 2.1875 0.015625 2.0625 -0.0078125 1.96875 -0.0625 C 1.882812 -0.125 1.828125 -0.222656 1.796875 -0.359375 L 1.75 -0.359375 C 1.613281 -0.0859375 1.375 0.046875 1.03125 0.046875 Z M 1.234375 -0.4375 C 1.390625 -0.4375 1.507812 -0.488281 1.59375 -0.59375 C 1.6875 -0.695312 1.734375 -0.84375 1.734375 -1.03125 L 1.734375 -1.296875 L 1.6875 -1.296875 C 1.644531 -1.265625 1.59375 -1.238281 1.53125 -1.21875 C 1.46875 -1.195312 1.375 -1.175781 1.25 -1.15625 C 1.113281 -1.132812 1.015625 -1.09375 0.953125 -1.03125 C 0.890625 -0.976562 0.859375 -0.894531 0.859375 -0.78125 C 0.859375 -0.675781 0.890625 -0.59375 0.953125 -0.53125 C 1.015625 -0.46875 1.109375 -0.4375 1.234375 -0.4375 Z M 1.234375 -0.4375 "/></g></g><g transform="translate(26.655693, 14.393705)"><g><path d="M 1.203125 0.046875 C 0.910156 0.046875 0.691406 -0.03125 0.546875 -0.1875 C 0.410156 -0.351562 0.34375 -0.585938 0.34375 -0.890625 L 0.34375 -2.625 L 1 -2.625 L 1 -0.96875 C 1 -0.8125 1.03125 -0.691406 1.09375 -0.609375 C 1.164062 -0.535156 1.273438 -0.5 1.421875 -0.5 C 1.597656 -0.5 1.738281 -0.554688 1.84375 -0.671875 C 1.945312 -0.796875 2 -0.988281 2 -1.25 L 2 -2.625 L 2.65625 -2.625 L 2.65625 0 L 2.03125 0 L 2.03125 -0.390625 L 1.96875 -0.390625 C 1.882812 -0.242188 1.78125 -0.132812 1.65625 -0.0625 C 1.539062 0.0078125 1.390625 0.046875 1.203125 0.046875 Z M 1.203125 0.046875 "/></g></g><g transform="translate(29.695864, 14.393705)"><g><path d="M 1.09375 0.046875 C 0.851562 0.046875 0.671875 -0.015625 0.546875 -0.140625 C 0.421875 -0.265625 0.359375 -0.457031 0.359375 -0.71875 L 0.359375 -3.6875 L 1.015625 -3.6875 L 1.015625 -0.75 C 1.015625 -0.59375 1.082031 -0.515625 1.21875 -0.515625 C 1.257812 -0.515625 1.300781 -0.519531 1.34375 -0.53125 L 1.375 -0.515625 L 1.4375 -0.015625 C 1.394531 0.00390625 1.34375 0.0195312 1.28125 0.03125 C 1.226562 0.0390625 1.164062 0.046875 1.09375 0.046875 Z M 1.09375 0.046875 "/></g></g><g transform="translate(31.20642, 14.393705)"><g><path d="M 1.8125 -0.625 L 1.984375 -0.140625 C 1.910156 -0.078125 1.816406 -0.03125 1.703125 0 C 1.597656 0.03125 1.476562 0.046875 1.34375 0.046875 C 1.0625 0.046875 0.847656 -0.03125 0.703125 -0.1875 C 0.554688 -0.34375 0.484375 -0.566406 0.484375 -0.859375 L 0.484375 -2.109375 L 0.078125 -2.109375 L 0.078125 -2.625 L 0.484375 -2.625 L 0.484375 -3.140625 L 1.140625 -3.25 L 1.140625 -2.625 L 1.890625 -2.625 L 1.890625 -2.109375 L 1.140625 -2.109375 L 1.140625 -0.90625 C 1.140625 -0.769531 1.164062 -0.671875 1.21875 -0.609375 C 1.269531 -0.554688 1.347656 -0.53125 1.453125 -0.53125 C 1.566406 -0.53125 1.671875 -0.5625 1.765625 -0.625 Z M 1.8125 -0.625 "/></g></g><g transform="translate(33.24829, 14.393705)"><g/></g><g transform="translate(34.399076, 14.393705)"><g><path d="M 1.6875 0.046875 C 1.394531 0.046875 1.144531 -0.015625 0.9375 -0.140625 C 0.726562 -0.273438 0.566406 -0.476562 0.453125 -0.75 C 0.335938 -1.019531 0.28125 -1.347656 0.28125 -1.734375 C 0.28125 -2.128906 0.347656 -2.460938 0.484375 -2.734375 C 0.617188 -3.003906 0.804688 -3.203125 1.046875 -3.328125 C 1.296875 -3.460938 1.582031 -3.53125 1.90625 -3.53125 C 2.238281 -3.53125 2.519531 -3.46875 2.75 -3.34375 C 2.988281 -3.21875 3.15625 -3.035156 3.25 -2.796875 L 2.75 -2.484375 L 2.6875 -2.484375 C 2.625 -2.640625 2.523438 -2.753906 2.390625 -2.828125 C 2.265625 -2.898438 2.101562 -2.9375 1.90625 -2.9375 C 1.601562 -2.9375 1.375 -2.84375 1.21875 -2.65625 C 1.0625 -2.46875 0.984375 -2.160156 0.984375 -1.734375 C 0.984375 -1.316406 1.054688 -1.007812 1.203125 -0.8125 C 1.347656 -0.625 1.566406 -0.53125 1.859375 -0.53125 C 2.109375 -0.53125 2.289062 -0.585938 2.40625 -0.703125 C 2.53125 -0.816406 2.59375 -0.988281 2.59375 -1.21875 L 2.59375 -1.359375 L 1.765625 -1.359375 L 1.765625 -1.921875 L 3.28125 -1.921875 L 3.28125 0 L 2.625 0 L 2.625 -0.46875 L 2.578125 -0.46875 C 2.503906 -0.300781 2.394531 -0.171875 2.25 -0.078125 C 2.101562 0.00390625 1.914062 0.046875 1.6875 0.046875 Z M 1.6875 0.046875 "/></g></g><g transform="translate(38.03251, 14.393705)"><g><path d="M 1.203125 0.046875 C 0.910156 0.046875 0.691406 -0.03125 0.546875 -0.1875 C 0.410156 -0.351562 0.34375 -0.585938 0.34375 -0.890625 L 0.34375 -2.625 L 1 -2.625 L 1 -0.96875 C 1 -0.8125 1.03125 -0.691406 1.09375 -0.609375 C 1.164062 -0.535156 1.273438 -0.5 1.421875 -0.5 C 1.597656 -0.5 1.738281 -0.554688 1.84375 -0.671875 C 1.945312 -0.796875 2 -0.988281 2 -1.25 L 2 -2.625 L 2.65625 -2.625 L 2.65625 0 L 2.03125 0 L 2.03125 -0.390625 L 1.96875 -0.390625 C 1.882812 -0.242188 1.78125 -0.132812 1.65625 -0.0625 C 1.539062 0.0078125 1.390625 0.046875 1.203125 0.046875 Z M 1.203125 0.046875 "/></g></g><g transform="translate(41.072681, 14.393705)"><g><path d="M 1.03125 0.046875 C 0.851562 0.046875 0.703125 0.015625 0.578125 -0.046875 C 0.460938 -0.109375 0.367188 -0.195312 0.296875 -0.3125 C 0.234375 -0.4375 0.203125 -0.582031 0.203125 -0.75 C 0.203125 -0.90625 0.234375 -1.035156 0.296875 -1.140625 C 0.367188 -1.242188 0.472656 -1.328125 0.609375 -1.390625 C 0.742188 -1.460938 0.925781 -1.515625 1.15625 -1.546875 C 1.3125 -1.578125 1.429688 -1.609375 1.515625 -1.640625 C 1.597656 -1.671875 1.648438 -1.703125 1.671875 -1.734375 C 1.703125 -1.773438 1.71875 -1.828125 1.71875 -1.890625 C 1.71875 -1.972656 1.6875 -2.035156 1.625 -2.078125 C 1.570312 -2.117188 1.476562 -2.140625 1.34375 -2.140625 C 1.195312 -2.140625 1.054688 -2.109375 0.921875 -2.046875 C 0.796875 -1.984375 0.679688 -1.898438 0.578125 -1.796875 L 0.53125 -1.796875 L 0.265625 -2.203125 C 0.390625 -2.347656 0.546875 -2.460938 0.734375 -2.546875 C 0.929688 -2.628906 1.144531 -2.671875 1.375 -2.671875 C 1.71875 -2.671875 1.96875 -2.597656 2.125 -2.453125 C 2.28125 -2.304688 2.359375 -2.097656 2.359375 -1.828125 L 2.359375 -0.6875 C 2.359375 -0.570312 2.410156 -0.515625 2.515625 -0.515625 C 2.554688 -0.515625 2.597656 -0.519531 2.640625 -0.53125 L 2.671875 -0.515625 L 2.71875 -0.0625 C 2.675781 -0.0390625 2.625 -0.0195312 2.5625 0 C 2.5 0.0078125 2.425781 0.015625 2.34375 0.015625 C 2.1875 0.015625 2.0625 -0.0078125 1.96875 -0.0625 C 1.882812 -0.125 1.828125 -0.222656 1.796875 -0.359375 L 1.75 -0.359375 C 1.613281 -0.0859375 1.375 0.046875 1.03125 0.046875 Z M 1.234375 -0.4375 C 1.390625 -0.4375 1.507812 -0.488281 1.59375 -0.59375 C 1.6875 -0.695312 1.734375 -0.84375 1.734375 -1.03125 L 1.734375 -1.296875 L 1.6875 -1.296875 C 1.644531 -1.265625 1.59375 -1.238281 1.53125 -1.21875 C 1.46875 -1.195312 1.375 -1.175781 1.25 -1.15625 C 1.113281 -1.132812 1.015625 -1.09375 0.953125 -1.03125 C 0.890625 -0.976562 0.859375 -0.894531 0.859375 -0.78125 C 0.859375 -0.675781 0.890625 -0.59375 0.953125 -0.53125 C 1.015625 -0.46875 1.109375 -0.4375 1.234375 -0.4375 Z M 1.234375 -0.4375 "/></g></g><g transform="translate(43.843621, 14.393705)"><g><path d="M 0.375 0 L 0.375 -2.625 L 1.015625 -2.625 L 1.015625 -2.234375 L 1.0625 -2.21875 C 1.125 -2.363281 1.207031 -2.472656 1.3125 -2.546875 C 1.414062 -2.617188 1.539062 -2.65625 1.6875 -2.65625 C 1.84375 -2.65625 1.957031 -2.628906 2.03125 -2.578125 L 1.921875 -2 L 1.875 -2 C 1.832031 -2.007812 1.789062 -2.019531 1.75 -2.03125 C 1.707031 -2.039062 1.660156 -2.046875 1.609375 -2.046875 C 1.421875 -2.046875 1.273438 -1.976562 1.171875 -1.84375 C 1.078125 -1.71875 1.03125 -1.515625 1.03125 -1.234375 L 1.03125 0 Z M 0.375 0 "/></g></g><g transform="translate(45.904553, 14.393705)"><g><path d="M 1.296875 0.046875 C 1.085938 0.046875 0.898438 0 0.734375 -0.09375 C 0.578125 -0.195312 0.453125 -0.347656 0.359375 -0.546875 C 0.273438 -0.753906 0.234375 -1.007812 0.234375 -1.3125 C 0.234375 -1.613281 0.28125 -1.863281 0.375 -2.0625 C 0.46875 -2.269531 0.59375 -2.421875 0.75 -2.515625 C 0.914062 -2.617188 1.109375 -2.671875 1.328125 -2.671875 C 1.492188 -2.671875 1.632812 -2.640625 1.75 -2.578125 C 1.875 -2.523438 1.976562 -2.441406 2.0625 -2.328125 L 2.109375 -2.34375 L 2.109375 -3.6875 L 2.765625 -3.6875 L 2.765625 0 L 2.109375 0 L 2.109375 -0.34375 L 2.0625 -0.34375 C 1.988281 -0.226562 1.882812 -0.132812 1.75 -0.0625 C 1.625 0.0078125 1.472656 0.046875 1.296875 0.046875 Z M 1.515625 -0.515625 C 1.703125 -0.515625 1.847656 -0.578125 1.953125 -0.703125 C 2.054688 -0.835938 2.109375 -1.039062 2.109375 -1.3125 C 2.109375 -1.582031 2.054688 -1.78125 1.953125 -1.90625 C 1.847656 -2.039062 1.703125 -2.109375 1.515625 -2.109375 C 1.316406 -2.109375 1.164062 -2.046875 1.0625 -1.921875 C 0.96875 -1.796875 0.921875 -1.59375 0.921875 -1.3125 C 0.921875 -1.03125 0.96875 -0.828125 1.0625 -0.703125 C 1.164062 -0.578125 1.316406 -0.515625 1.515625 -0.515625 Z M 1.515625 -0.515625 "/></g></g></g><g fill="#05386b" fill-opacity="1"><g transform="translate(49.054323, 14.393705)"><g/></g></g><g fill="#05386b" fill-opacity="1"><g transform="translate(23.861485, 18.181895)"><g><path d="M 0.3125 0 L 0.3125 -2.09375 L 1.109375 -2.09375 C 1.242188 -2.09375 1.351562 -2.070312 1.4375 -2.03125 C 1.53125 -1.988281 1.597656 -1.929688 1.640625 -1.859375 C 1.691406 -1.785156 1.71875 -1.695312 1.71875 -1.59375 C 1.71875 -1.5 1.691406 -1.414062 1.640625 -1.34375 C 1.585938 -1.269531 1.515625 -1.210938 1.421875 -1.171875 L 1.421875 -1.140625 C 1.566406 -1.109375 1.675781 -1.046875 1.75 -0.953125 C 1.820312 -0.859375 1.859375 -0.742188 1.859375 -0.609375 C 1.859375 -0.410156 1.800781 -0.257812 1.6875 -0.15625 C 1.570312 -0.0507812 1.398438 0 1.171875 0 Z M 1.09375 -1.21875 C 1.21875 -1.21875 1.3125 -1.25 1.375 -1.3125 C 1.4375 -1.375 1.46875 -1.457031 1.46875 -1.5625 C 1.46875 -1.664062 1.4375 -1.742188 1.375 -1.796875 C 1.3125 -1.859375 1.21875 -1.890625 1.09375 -1.890625 L 0.5625 -1.890625 L 0.5625 -1.21875 Z M 1.15625 -0.203125 C 1.445312 -0.203125 1.59375 -0.335938 1.59375 -0.609375 C 1.59375 -0.878906 1.445312 -1.015625 1.15625 -1.015625 L 0.5625 -1.015625 L 0.5625 -0.203125 Z M 1.15625 -0.203125 "/></g></g><g transform="translate(25.884074, 18.181895)"><g><path d="M 0.65625 0.03125 C 0.5 0.03125 0.375 -0.0078125 0.28125 -0.09375 C 0.195312 -0.175781 0.15625 -0.289062 0.15625 -0.4375 C 0.15625 -0.53125 0.171875 -0.609375 0.203125 -0.671875 C 0.242188 -0.742188 0.304688 -0.796875 0.390625 -0.828125 C 0.472656 -0.867188 0.582031 -0.898438 0.71875 -0.921875 C 0.832031 -0.941406 0.914062 -0.960938 0.96875 -0.984375 C 1.03125 -1.015625 1.070312 -1.046875 1.09375 -1.078125 C 1.113281 -1.109375 1.125 -1.144531 1.125 -1.1875 C 1.125 -1.257812 1.097656 -1.3125 1.046875 -1.34375 C 1.003906 -1.382812 0.925781 -1.40625 0.8125 -1.40625 C 0.707031 -1.40625 0.617188 -1.382812 0.546875 -1.34375 C 0.472656 -1.3125 0.40625 -1.253906 0.34375 -1.171875 L 0.328125 -1.171875 L 0.203125 -1.328125 C 0.273438 -1.421875 0.359375 -1.488281 0.453125 -1.53125 C 0.554688 -1.582031 0.675781 -1.609375 0.8125 -1.609375 C 1 -1.609375 1.132812 -1.566406 1.21875 -1.484375 C 1.3125 -1.398438 1.359375 -1.289062 1.359375 -1.15625 L 1.359375 -0.3125 C 1.359375 -0.21875 1.394531 -0.171875 1.46875 -0.171875 C 1.5 -0.171875 1.523438 -0.175781 1.546875 -0.1875 L 1.5625 -0.1875 L 1.59375 -0.03125 C 1.570312 -0.0078125 1.546875 0 1.515625 0 C 1.492188 0.0078125 1.46875 0.015625 1.4375 0.015625 C 1.351562 0.015625 1.285156 -0.00390625 1.234375 -0.046875 C 1.191406 -0.0859375 1.164062 -0.144531 1.15625 -0.21875 L 1.125 -0.21875 C 1.082031 -0.132812 1.019531 -0.0703125 0.9375 -0.03125 C 0.863281 0.0078125 0.769531 0.03125 0.65625 0.03125 Z M 0.703125 -0.15625 C 0.796875 -0.15625 0.875 -0.175781 0.9375 -0.21875 C 1 -0.257812 1.046875 -0.316406 1.078125 -0.390625 C 1.117188 -0.460938 1.140625 -0.546875 1.140625 -0.640625 L 1.140625 -0.84375 L 1.109375 -0.84375 C 1.066406 -0.820312 1.019531 -0.800781 0.96875 -0.78125 C 0.925781 -0.769531 0.859375 -0.757812 0.765625 -0.75 C 0.671875 -0.726562 0.597656 -0.703125 0.546875 -0.671875 C 0.492188 -0.648438 0.453125 -0.617188 0.421875 -0.578125 C 0.398438 -0.546875 0.390625 -0.5 0.390625 -0.4375 C 0.390625 -0.34375 0.414062 -0.269531 0.46875 -0.21875 C 0.53125 -0.175781 0.609375 -0.15625 0.703125 -0.15625 Z M 0.703125 -0.15625 "/></g></g><g transform="translate(27.524282, 18.181895)"><g><path d="M 0.90625 0.03125 C 0.769531 0.03125 0.644531 0 0.53125 -0.0625 C 0.414062 -0.125 0.328125 -0.21875 0.265625 -0.34375 C 0.203125 -0.46875 0.171875 -0.617188 0.171875 -0.796875 C 0.171875 -0.960938 0.203125 -1.109375 0.265625 -1.234375 C 0.328125 -1.359375 0.414062 -1.453125 0.53125 -1.515625 C 0.644531 -1.578125 0.769531 -1.609375 0.90625 -1.609375 C 1.070312 -1.609375 1.203125 -1.578125 1.296875 -1.515625 C 1.398438 -1.453125 1.472656 -1.367188 1.515625 -1.265625 L 1.359375 -1.15625 L 1.328125 -1.15625 C 1.285156 -1.238281 1.226562 -1.300781 1.15625 -1.34375 C 1.09375 -1.382812 1.007812 -1.40625 0.90625 -1.40625 C 0.8125 -1.40625 0.726562 -1.378906 0.65625 -1.328125 C 0.582031 -1.285156 0.523438 -1.21875 0.484375 -1.125 C 0.441406 -1.03125 0.421875 -0.921875 0.421875 -0.796875 C 0.421875 -0.660156 0.441406 -0.546875 0.484375 -0.453125 C 0.523438 -0.359375 0.582031 -0.285156 0.65625 -0.234375 C 0.726562 -0.191406 0.8125 -0.171875 0.90625 -0.171875 C 1.019531 -0.171875 1.113281 -0.195312 1.1875 -0.25 C 1.257812 -0.300781 1.3125 -0.378906 1.34375 -0.484375 L 1.375 -0.484375 L 1.53125 -0.40625 C 1.488281 -0.269531 1.414062 -0.160156 1.3125 -0.078125 C 1.207031 -0.00390625 1.070312 0.03125 0.90625 0.03125 Z M 0.90625 0.03125 "/></g></g><g transform="translate(29.158741, 18.181895)"><g><path d="M 0.28125 0 L 0.28125 -2.21875 L 0.515625 -2.21875 L 0.515625 -0.921875 L 0.546875 -0.921875 L 1.140625 -1.578125 L 1.375 -1.578125 L 1.375 -1.546875 L 0.75 -0.84375 L 1.4375 -0.03125 L 1.4375 0 L 1.1875 0 L 0.546875 -0.734375 L 0.515625 -0.734375 L 0.515625 0 Z M 0.28125 0 "/></g></g><g transform="translate(30.633635, 18.181895)"><g><path d="M 0.78125 0.03125 C 0.601562 0.03125 0.46875 -0.015625 0.375 -0.109375 C 0.289062 -0.203125 0.25 -0.34375 0.25 -0.53125 L 0.25 -1.578125 L 0.484375 -1.578125 L 0.484375 -0.53125 C 0.484375 -0.289062 0.597656 -0.171875 0.828125 -0.171875 C 0.960938 -0.171875 1.070312 -0.21875 1.15625 -0.3125 C 1.238281 -0.40625 1.28125 -0.554688 1.28125 -0.765625 L 1.28125 -1.578125 L 1.515625 -1.578125 L 1.515625 0 L 1.296875 0 L 1.296875 -0.25 L 1.265625 -0.25 C 1.210938 -0.15625 1.148438 -0.0820312 1.078125 -0.03125 C 1.003906 0.0078125 0.90625 0.03125 0.78125 0.03125 Z M 0.78125 0.03125 "/></g></g><g transform="translate(32.434846, 18.181895)"><g><path d="M 0.28125 0.640625 L 0.28125 -1.578125 L 0.515625 -1.578125 L 0.515625 -1.34375 L 0.546875 -1.34375 C 0.660156 -1.519531 0.832031 -1.609375 1.0625 -1.609375 C 1.1875 -1.609375 1.296875 -1.578125 1.390625 -1.515625 C 1.492188 -1.460938 1.570312 -1.375 1.625 -1.25 C 1.6875 -1.125 1.71875 -0.972656 1.71875 -0.796875 C 1.71875 -0.609375 1.6875 -0.453125 1.625 -0.328125 C 1.570312 -0.210938 1.492188 -0.125 1.390625 -0.0625 C 1.285156 0 1.171875 0.03125 1.046875 0.03125 C 0.929688 0.03125 0.832031 0.015625 0.75 -0.015625 C 0.664062 -0.0546875 0.597656 -0.117188 0.546875 -0.203125 L 0.515625 -0.203125 L 0.515625 0.640625 Z M 0.984375 -0.171875 C 1.304688 -0.171875 1.46875 -0.378906 1.46875 -0.796875 C 1.46875 -1.203125 1.304688 -1.40625 0.984375 -1.40625 C 0.890625 -1.40625 0.804688 -1.382812 0.734375 -1.34375 C 0.660156 -1.300781 0.601562 -1.234375 0.5625 -1.140625 C 0.53125 -1.046875 0.515625 -0.929688 0.515625 -0.796875 C 0.515625 -0.648438 0.53125 -0.53125 0.5625 -0.4375 C 0.601562 -0.351562 0.660156 -0.285156 0.734375 -0.234375 C 0.804688 -0.191406 0.890625 -0.171875 0.984375 -0.171875 Z M 0.984375 -0.171875 "/></g></g><g transform="translate(34.32662, 18.181895)"><g/></g><g transform="translate(35.048254, 18.181895)"><g><path d="M 0.71875 0.03125 C 0.625 0.03125 0.53125 0.0195312 0.4375 0 C 0.351562 -0.03125 0.28125 -0.0664062 0.21875 -0.109375 C 0.164062 -0.160156 0.128906 -0.210938 0.109375 -0.265625 L 0.25 -0.421875 L 0.28125 -0.421875 C 0.332031 -0.335938 0.394531 -0.273438 0.46875 -0.234375 C 0.539062 -0.191406 0.625 -0.171875 0.71875 -0.171875 C 0.832031 -0.171875 0.921875 -0.191406 0.984375 -0.234375 C 1.046875 -0.285156 1.078125 -0.351562 1.078125 -0.4375 C 1.078125 -0.5 1.054688 -0.550781 1.015625 -0.59375 C 0.984375 -0.632812 0.925781 -0.664062 0.84375 -0.6875 L 0.578125 -0.75 C 0.429688 -0.78125 0.328125 -0.832031 0.265625 -0.90625 C 0.203125 -0.988281 0.171875 -1.082031 0.171875 -1.1875 C 0.171875 -1.269531 0.191406 -1.34375 0.234375 -1.40625 C 0.273438 -1.476562 0.335938 -1.53125 0.421875 -1.5625 C 0.503906 -1.59375 0.601562 -1.609375 0.71875 -1.609375 C 0.863281 -1.609375 0.976562 -1.585938 1.0625 -1.546875 C 1.144531 -1.503906 1.210938 -1.445312 1.265625 -1.375 L 1.125 -1.25 L 1.09375 -1.25 C 1.039062 -1.3125 0.984375 -1.351562 0.921875 -1.375 C 0.867188 -1.40625 0.800781 -1.421875 0.71875 -1.421875 C 0.613281 -1.421875 0.53125 -1.398438 0.46875 -1.359375 C 0.414062 -1.328125 0.390625 -1.273438 0.390625 -1.203125 C 0.390625 -1.140625 0.410156 -1.085938 0.453125 -1.046875 C 0.492188 -1.003906 0.5625 -0.972656 0.65625 -0.953125 L 0.921875 -0.890625 C 1.054688 -0.859375 1.15625 -0.800781 1.21875 -0.71875 C 1.28125 -0.644531 1.3125 -0.550781 1.3125 -0.4375 C 1.3125 -0.34375 1.289062 -0.257812 1.25 -0.1875 C 1.207031 -0.125 1.140625 -0.0703125 1.046875 -0.03125 C 0.953125 0.0078125 0.84375 0.03125 0.71875 0.03125 Z M 0.71875 0.03125 "/></g></g><g transform="translate(36.514523, 18.181895)"><g><path d="M 1.5 -0.734375 L 0.421875 -0.734375 C 0.429688 -0.546875 0.476562 -0.40625 0.5625 -0.3125 C 0.644531 -0.21875 0.757812 -0.171875 0.90625 -0.171875 C 1.019531 -0.171875 1.109375 -0.191406 1.171875 -0.234375 C 1.242188 -0.273438 1.300781 -0.335938 1.34375 -0.421875 L 1.375 -0.421875 L 1.53125 -0.34375 C 1.476562 -0.226562 1.398438 -0.132812 1.296875 -0.0625 C 1.203125 0 1.070312 0.03125 0.90625 0.03125 C 0.757812 0.03125 0.628906 0 0.515625 -0.0625 C 0.398438 -0.125 0.3125 -0.210938 0.25 -0.328125 C 0.195312 -0.453125 0.171875 -0.609375 0.171875 -0.796875 C 0.171875 -0.972656 0.203125 -1.125 0.265625 -1.25 C 0.328125 -1.375 0.410156 -1.460938 0.515625 -1.515625 C 0.628906 -1.578125 0.753906 -1.609375 0.890625 -1.609375 C 1.097656 -1.609375 1.257812 -1.550781 1.375 -1.4375 C 1.488281 -1.320312 1.546875 -1.15625 1.546875 -0.9375 C 1.546875 -0.84375 1.539062 -0.78125 1.53125 -0.75 Z M 1.3125 -0.9375 C 1.3125 -1.101562 1.273438 -1.222656 1.203125 -1.296875 C 1.128906 -1.378906 1.023438 -1.421875 0.890625 -1.421875 C 0.753906 -1.421875 0.644531 -1.378906 0.5625 -1.296875 C 0.488281 -1.222656 0.441406 -1.101562 0.421875 -0.9375 Z M 1.3125 -0.9375 "/></g></g><g transform="translate(38.205045, 18.181895)"><g><path d="M 0.28125 0 L 0.28125 -1.578125 L 0.5 -1.578125 L 0.5 -1.328125 L 0.53125 -1.328125 C 0.601562 -1.503906 0.738281 -1.59375 0.9375 -1.59375 C 1.050781 -1.59375 1.132812 -1.570312 1.1875 -1.53125 L 1.125 -1.34375 L 1.09375 -1.328125 C 1.039062 -1.359375 0.976562 -1.375 0.90625 -1.375 C 0.78125 -1.375 0.679688 -1.328125 0.609375 -1.234375 C 0.546875 -1.140625 0.515625 -0.988281 0.515625 -0.78125 L 0.515625 0 Z M 0.28125 0 "/></g></g><g transform="translate(39.429811, 18.181895)"><g><path d="M 1 0 L 0.6875 0 L 0.078125 -1.578125 L 0.328125 -1.578125 L 0.828125 -0.265625 L 0.859375 -0.265625 L 1.359375 -1.578125 L 1.59375 -1.578125 Z M 1 0 "/></g></g><g transform="translate(41.11027, 18.181895)"><g><path d="M 0.390625 -1.890625 C 0.335938 -1.890625 0.296875 -1.90625 0.265625 -1.9375 C 0.234375 -1.96875 0.21875 -2.003906 0.21875 -2.046875 C 0.21875 -2.097656 0.234375 -2.140625 0.265625 -2.171875 C 0.296875 -2.203125 0.335938 -2.21875 0.390625 -2.21875 C 0.441406 -2.21875 0.484375 -2.203125 0.515625 -2.171875 C 0.546875 -2.140625 0.5625 -2.097656 0.5625 -2.046875 C 0.5625 -2.003906 0.546875 -1.96875 0.515625 -1.9375 C 0.484375 -1.90625 0.441406 -1.890625 0.390625 -1.890625 Z M 0.28125 0 L 0.28125 -1.578125 L 0.515625 -1.578125 L 0.515625 0 Z M 0.28125 0 "/></g></g><g transform="translate(41.896593, 18.181895)"><g><path d="M 0.90625 0.03125 C 0.769531 0.03125 0.644531 0 0.53125 -0.0625 C 0.414062 -0.125 0.328125 -0.21875 0.265625 -0.34375 C 0.203125 -0.46875 0.171875 -0.617188 0.171875 -0.796875 C 0.171875 -0.960938 0.203125 -1.109375 0.265625 -1.234375 C 0.328125 -1.359375 0.414062 -1.453125 0.53125 -1.515625 C 0.644531 -1.578125 0.769531 -1.609375 0.90625 -1.609375 C 1.070312 -1.609375 1.203125 -1.578125 1.296875 -1.515625 C 1.398438 -1.453125 1.472656 -1.367188 1.515625 -1.265625 L 1.359375 -1.15625 L 1.328125 -1.15625 C 1.285156 -1.238281 1.226562 -1.300781 1.15625 -1.34375 C 1.09375 -1.382812 1.007812 -1.40625 0.90625 -1.40625 C 0.8125 -1.40625 0.726562 -1.378906 0.65625 -1.328125 C 0.582031 -1.285156 0.523438 -1.21875 0.484375 -1.125 C 0.441406 -1.03125 0.421875 -0.921875 0.421875 -0.796875 C 0.421875 -0.660156 0.441406 -0.546875 0.484375 -0.453125 C 0.523438 -0.359375 0.582031 -0.285156 0.65625 -0.234375 C 0.726562 -0.191406 0.8125 -0.171875 0.90625 -0.171875 C 1.019531 -0.171875 1.113281 -0.195312 1.1875 -0.25 C 1.257812 -0.300781 1.3125 -0.378906 1.34375 -0.484375 L 1.375 -0.484375 L 1.53125 -0.40625 C 1.488281 -0.269531 1.414062 -0.160156 1.3125 -0.078125 C 1.207031 -0.00390625 1.070312 0.03125 0.90625 0.03125 Z M 0.90625 0.03125 "/></g></g><g transform="translate(43.531051, 18.181895)"><g><path d="M 1.5 -0.734375 L 0.421875 -0.734375 C 0.429688 -0.546875 0.476562 -0.40625 0.5625 -0.3125 C 0.644531 -0.21875 0.757812 -0.171875 0.90625 -0.171875 C 1.019531 -0.171875 1.109375 -0.191406 1.171875 -0.234375 C 1.242188 -0.273438 1.300781 -0.335938 1.34375 -0.421875 L 1.375 -0.421875 L 1.53125 -0.34375 C 1.476562 -0.226562 1.398438 -0.132812 1.296875 -0.0625 C 1.203125 0 1.070312 0.03125 0.90625 0.03125 C 0.757812 0.03125 0.628906 0 0.515625 -0.0625 C 0.398438 -0.125 0.3125 -0.210938 0.25 -0.328125 C 0.195312 -0.453125 0.171875 -0.609375 0.171875 -0.796875 C 0.171875 -0.972656 0.203125 -1.125 0.265625 -1.25 C 0.328125 -1.375 0.410156 -1.460938 0.515625 -1.515625 C 0.628906 -1.578125 0.753906 -1.609375 0.890625 -1.609375 C 1.097656 -1.609375 1.257812 -1.550781 1.375 -1.4375 C 1.488281 -1.320312 1.546875 -1.15625 1.546875 -0.9375 C 1.546875 -0.84375 1.539062 -0.78125 1.53125 -0.75 Z M 1.3125 -0.9375 C 1.3125 -1.101562 1.273438 -1.222656 1.203125 -1.296875 C 1.128906 -1.378906 1.023438 -1.421875 0.890625 -1.421875 C 0.753906 -1.421875 0.644531 -1.378906 0.5625 -1.296875 C 0.488281 -1.222656 0.441406 -1.101562 0.421875 -0.9375 Z M 1.3125 -0.9375 "/></g></g><g transform="translate(45.221573, 18.181895)"><g><path d="M 0.71875 0.03125 C 0.625 0.03125 0.53125 0.0195312 0.4375 0 C 0.351562 -0.03125 0.28125 -0.0664062 0.21875 -0.109375 C 0.164062 -0.160156 0.128906 -0.210938 0.109375 -0.265625 L 0.25 -0.421875 L 0.28125 -0.421875 C 0.332031 -0.335938 0.394531 -0.273438 0.46875 -0.234375 C 0.539062 -0.191406 0.625 -0.171875 0.71875 -0.171875 C 0.832031 -0.171875 0.921875 -0.191406 0.984375 -0.234375 C 1.046875 -0.285156 1.078125 -0.351562 1.078125 -0.4375 C 1.078125 -0.5 1.054688 -0.550781 1.015625 -0.59375 C 0.984375 -0.632812 0.925781 -0.664062 0.84375 -0.6875 L 0.578125 -0.75 C 0.429688 -0.78125 0.328125 -0.832031 0.265625 -0.90625 C 0.203125 -0.988281 0.171875 -1.082031 0.171875 -1.1875 C 0.171875 -1.269531 0.191406 -1.34375 0.234375 -1.40625 C 0.273438 -1.476562 0.335938 -1.53125 0.421875 -1.5625 C 0.503906 -1.59375 0.601562 -1.609375 0.71875 -1.609375 C 0.863281 -1.609375 0.976562 -1.585938 1.0625 -1.546875 C 1.144531 -1.503906 1.210938 -1.445312 1.265625 -1.375 L 1.125 -1.25 L 1.09375 -1.25 C 1.039062 -1.3125 0.984375 -1.351562 0.921875 -1.375 C 0.867188 -1.40625 0.800781 -1.421875 0.71875 -1.421875 C 0.613281 -1.421875 0.53125 -1.398438 0.46875 -1.359375 C 0.414062 -1.328125 0.390625 -1.273438 0.390625 -1.203125 C 0.390625 -1.140625 0.410156 -1.085938 0.453125 -1.046875 C 0.492188 -1.003906 0.5625 -0.972656 0.65625 -0.953125 L 0.921875 -0.890625 C 1.054688 -0.859375 1.15625 -0.800781 1.21875 -0.71875 C 1.28125 -0.644531 1.3125 -0.550781 1.3125 -0.4375 C 1.3125 -0.34375 1.289062 -0.257812 1.25 -0.1875 C 1.207031 -0.125 1.140625 -0.0703125 1.046875 -0.03125 C 0.953125 0.0078125 0.84375 0.03125 0.71875 0.03125 Z M 0.71875 0.03125 "/></g></g></g><g fill="#000000" fill-opacity="1"><g transform="translate(46.68928, 18.181895)"><g/></g></g></svg>